
<svg xmlns="http://www.w3.org/2000/svg" viewBox="-100 -100 712 712"><!--!Font Awesome Free 6.5.2 by @fontawesome - https://fontawesome.com License - https://fontawesome.com/license/free Copyright 2024 Fonticons, Inc.-->
<rect x="-100" y="-100" width="712" height="712" fill="#DDBA1D" stroke="white" stroke-width="20" rx="150" ry="150" stroke-linecap="round" stroke-linejoin="round"/>
<path d="M0 48C0 21.5 21.5 0 48 0l0 48V441.4l130.1-92.9c8.3-6 19.6-6 27.9 0L336 441.4V48H48V0H336c26.5 0 48 21.5 48 48V488c0 9-5 17.2-13 21.3s-17.6 3.4-24.9-1.8L192 397.5 37.9 507.5c-7.3 5.2-16.9 5.9-24.9 1.8S0 497 0 488V48z" fill="white" stroke="white" stroke-width="0.5" transform="translate(60, 10)"/>
</svg>